<svg width="24" height="24" viewBox="0 0 24 24" fill="none" xmlns="http://www.w3.org/2000/svg">
<path fill-rule="evenodd" clip-rule="evenodd" d="M18 5H4V7H18V5ZM4 4C3.44772 4 3 4.44772 3 5V7C3 7.55228 3.44772 8 4 8H18C18.5523 8 19 7.55228 19 7V5C19 4.44772 18.5523 4 18 4H4Z" fill="#0052CC"/>
<path fill-rule="evenodd" clip-rule="evenodd" d="M20 11H6V13H20V11ZM6 10C5.44772 10 5 10.4477 5 11V13C5 13.5523 5.44772 14 6 14H20C20.5523 14 21 13.5523 21 13V11C21 10.4477 20.5523 10 20 10H6Z" fill="#0052CC"/>
<path fill-rule="evenodd" clip-rule="evenodd" d="M18 17H4V19H18V17ZM4 16C3.44772 16 3 16.4477 3 17V19C3 19.5523 3.44772 20 4 20H18C18.5523 20 19 19.5523 19 19V17C19 16.4477 18.5523 16 18 16H4Z" fill="#0052CC"/>
</svg>
