<svg width="30" height="30" viewBox="0 0 30 30" fill="none" xmlns="http://www.w3.org/2000/svg">
<rect x="0.5" y="0.5" width="29" height="29" rx="1.5" fill="white" stroke="#E4E8ED"/>
<path d="M21.125 14.2511H10.7475L13.9238 10.4361C14.0723 10.2574 14.1437 10.027 14.1224 9.79566C14.1011 9.56429 13.9887 9.35087 13.81 9.20235C13.6313 9.05382 13.4009 8.98237 13.1696 9.0037C12.9382 9.02503 12.7248 9.13741 12.5762 9.3161L8.20125 14.5661C8.17182 14.6079 8.14549 14.6517 8.1225 14.6973C8.1225 14.7411 8.1225 14.7673 8.06125 14.8111C8.02159 14.9114 8.00082 15.0182 8 15.1261C8.00082 15.234 8.02159 15.3408 8.06125 15.4411C8.06125 15.4848 8.06125 15.5111 8.1225 15.5548C8.14549 15.6005 8.17182 15.6443 8.20125 15.6861L12.5762 20.9361C12.6585 21.0349 12.7615 21.1143 12.878 21.1687C12.9944 21.2232 13.1215 21.2513 13.25 21.2511C13.4544 21.2515 13.6526 21.1803 13.81 21.0498C13.8986 20.9764 13.9718 20.8862 14.0255 20.7844C14.0792 20.6826 14.1123 20.5712 14.1228 20.4566C14.1334 20.342 14.1213 20.2264 14.0871 20.1165C14.0529 20.0066 13.9974 19.9045 13.9238 19.8161L10.7475 16.0011H21.125C21.3571 16.0011 21.5796 15.9089 21.7437 15.7448C21.9078 15.5807 22 15.3582 22 15.1261C22 14.894 21.9078 14.6715 21.7437 14.5074C21.5796 14.3433 21.3571 14.2511 21.125 14.2511Z" fill="#7E8F9F"/>
</svg>
