<svg width="18" height="3" viewBox="0 0 18 3" fill="none" xmlns="http://www.w3.org/2000/svg">
<path d="M16.5 -6.55671e-08C16.1022 -8.29566e-08 15.7206 0.158035 15.4393 0.439339C15.158 0.720644 15 1.10218 15 1.5C15 1.89782 15.158 2.27936 15.4393 2.56066C15.7206 2.84196 16.1022 3 16.5 3C16.8978 3 17.2794 2.84196 17.5607 2.56066C17.842 2.27936 18 1.89782 18 1.5C18 1.10218 17.842 0.720644 17.5607 0.439339C17.2794 0.158035 16.8978 -4.81776e-08 16.5 -6.55671e-08ZM9 -3.93403e-07C8.60217 -4.10792e-07 8.22064 0.158035 7.93934 0.439339C7.65804 0.720644 7.5 1.10217 7.5 1.5C7.5 1.89782 7.65804 2.27935 7.93934 2.56066C8.22064 2.84196 8.60217 3 9 3C9.39782 3 9.77936 2.84196 10.0607 2.56066C10.342 2.27935 10.5 1.89782 10.5 1.5C10.5 1.10217 10.342 0.720644 10.0607 0.439339C9.77936 0.158035 9.39782 -3.76013e-07 9 -3.93403e-07ZM1.5 -7.21238e-07C1.10217 -7.38628e-07 0.720644 0.158034 0.439341 0.439339C0.158035 0.720643 -4.81776e-08 1.10217 -6.55671e-08 1.5C-8.29565e-08 1.89782 0.158035 2.27935 0.43934 2.56066C0.720644 2.84196 1.10217 3 1.5 3C1.89783 3 2.27936 2.84196 2.56066 2.56066C2.84196 2.27935 3 1.89782 3 1.5C3 1.10217 2.84196 0.720643 2.56066 0.439339C2.27936 0.158034 1.89783 -7.03849e-07 1.5 -7.21238e-07Z" fill="#1968DF"/>
</svg>
