<svg width="180" height="40" viewBox="0 0 180 40" fill="none" xmlns="http://www.w3.org/2000/svg">
<g clip-path="url(#clip0)">
<path d="M179.047 6.76369C179.007 6.97993 179 7.16683 178.938 7.33055C178.216 9.26437 176.879 10.5278 174.796 10.7271C172.966 10.9016 171.114 10.8754 169.273 10.9464C168.171 10.9897 167.086 11.226 166.066 11.6415C165.106 12.0276 164.537 12.7273 164.395 13.7529C164.309 14.3707 164.485 14.9129 165.044 15.2326C165.508 15.5122 166.003 15.7362 166.517 15.8999C168.731 16.5486 170.972 17.1093 173.171 17.8028C174.496 18.2198 175.796 18.745 176.925 19.61C178.162 20.5614 178.831 21.8017 178.842 23.3556C178.851 24.6036 178.667 25.8269 178.034 26.939C177.414 28.0264 176.51 28.8095 175.391 29.3346C173.673 30.144 171.814 30.6105 169.918 30.7109C167.041 30.8653 164.159 30.8607 161.279 30.9271C160.505 30.9456 159.731 30.9765 158.956 30.9997C158.813 31.0043 158.66 30.9997 158.428 30.9997C158.695 30.1147 159.001 29.3516 159.587 28.7292C160.658 27.5924 161.992 26.9853 163.537 26.8958C164.837 26.8232 166.14 26.8093 167.44 26.8108C168.701 26.8108 169.95 26.7475 171.171 26.4108C172.31 26.0957 173.292 25.5998 173.564 24.2931C173.76 23.3556 173.541 22.6806 172.67 22.2944C171.711 21.8712 170.7 21.5608 169.69 21.2719C166.887 20.478 164.083 19.6887 161.48 18.3419C160.663 17.9187 159.932 17.3688 159.394 16.6027C158.791 15.7485 158.664 14.7893 158.751 13.7699C158.833 12.8045 158.981 11.8531 159.442 10.9943C160.259 9.47288 161.588 8.5415 163.174 7.95147C165.023 7.26568 166.95 6.95985 168.911 6.91043C170.755 6.86254 172.601 6.89498 174.446 6.87027C175.89 6.85019 177.327 6.79767 178.768 6.76215C178.834 6.76215 178.907 6.76369 179.047 6.76369Z" fill="#8D92A3"/>
<path d="M155.722 6.8362C155.722 11.2244 156.011 15.5646 155.216 19.8678C154.828 21.9685 154.193 23.9795 153.137 25.8546C151.759 28.3028 149.708 29.8551 146.984 30.5069C144.718 31.0676 142.355 31.0985 140.077 30.5965C136.629 29.8396 134.403 27.6649 132.973 24.5371C131.791 21.9484 131.232 19.2191 131.049 16.4002C130.987 15.458 130.967 14.5128 130.953 13.5675C130.922 11.4916 130.909 9.41565 130.89 7.33973C130.884 6.6493 130.946 6.61532 131.598 6.89026C133.157 7.54825 134.102 8.77619 134.718 10.2914C135.191 11.4746 135.457 12.7288 135.505 14.0015C135.615 16.357 135.779 18.7048 136.612 20.9459C137.205 22.5461 138.055 23.9764 139.487 24.9665C141.474 26.3442 143.624 26.6485 145.946 25.938C148.196 25.2507 149.488 23.6551 150.292 21.5576C150.975 19.7721 151.199 17.8985 151.349 16.011C151.484 14.3151 151.46 12.6006 151.927 10.9432C152.227 9.87284 152.683 8.88586 153.423 8.03325C153.955 7.42159 154.627 7.07406 155.378 6.83929C155.467 6.80994 155.581 6.8362 155.722 6.8362Z" fill="#8D92A3"/>
<path d="M127.652 6.57369C127.297 8.61562 126.117 9.86519 124.286 10.5572C123.137 10.9896 121.932 11.0514 120.726 11.1055C119.073 11.1781 117.471 11.4669 115.977 12.216C114.151 13.1273 112.998 14.5777 112.444 16.5347C111.95 18.277 112.054 19.9976 112.618 21.6889C113.413 24.0691 115.226 25.3342 117.561 25.8593C119.049 26.1945 120.583 26.3412 122.103 26.5219C123.363 26.6718 124.587 26.905 125.66 27.6309C126.617 28.2627 127.286 29.2435 127.525 30.3633C127.607 30.7247 127.51 30.839 127.147 30.836C124.961 30.8251 122.773 30.8977 120.589 30.8097C117.804 30.6969 115.083 30.2212 112.6 28.8311C109.712 27.217 108.069 24.7256 107.459 21.5268C107.02 19.2192 107.045 16.91 107.666 14.6333C108.597 11.2229 110.831 8.99713 114.085 7.74139C115.802 7.06641 117.624 6.69107 119.468 6.63084C122.054 6.55824 124.643 6.55824 127.23 6.53198C127.371 6.53971 127.513 6.55361 127.652 6.57369Z" fill="#8D92A3"/>
<path d="M107.162 6.87339C106.924 8.47667 106.091 9.6351 104.72 10.4167C103.734 10.9789 102.652 11.2291 101.527 11.3002C99.7528 11.4129 97.9738 11.4762 96.286 12.142C93.5596 13.2139 92.0496 15.2157 91.7327 18.1071C91.504 20.1877 91.861 22.1524 93.1701 23.8499C94.1531 25.1226 95.5333 25.8161 97.0573 26.1374C98.5519 26.454 100.079 26.6224 101.6 26.8016C102.876 26.9514 104.114 27.1846 105.199 27.9229C106.178 28.5886 106.791 29.5061 107.054 30.6646C107.127 30.9889 107.046 31.1202 106.699 31.1187C104.482 31.1079 102.263 31.1774 100.048 31.0909C97.5163 30.992 95.0326 30.5673 92.7235 29.432C89.5009 27.8457 87.623 25.2477 86.9769 21.7446C86.5535 19.4494 86.5797 17.1557 87.1995 14.8975C88.1377 11.4871 90.3757 9.27058 93.6307 8.01793C95.3788 7.33522 97.2319 6.95989 99.1083 6.90583C101.694 6.84096 104.283 6.83941 106.87 6.8147C106.968 6.82396 107.067 6.84404 107.162 6.87339Z" fill="#8D92A3"/>
<path d="M78.692 22.8289C78.692 20.3653 78.675 17.9001 78.6982 15.4365C78.7106 14.0603 78.7028 12.6733 78.862 11.311C79.0954 9.32772 80.3304 8.02409 82.0614 7.14986C82.3505 7.00621 82.6611 6.89809 82.9625 6.77607C83.2639 6.6525 83.3721 6.76989 83.3535 7.0649C83.3535 7.0958 83.3535 7.12669 83.3535 7.15758C83.3845 13.7421 83.4123 20.3267 83.4416 26.9112C83.4478 29.0752 81.5761 31.0322 79.0382 31.0399C78.658 31.0399 78.6719 30.8067 78.6719 30.5441C78.6781 28.3446 78.6812 26.1436 78.6828 23.9425V22.8289H78.692Z" fill="#8D92A3"/>
<path d="M127.162 16.7494C126.92 18.7851 125.402 20.373 123.277 20.756C121.705 21.0402 120.098 21.0819 118.513 20.8765C117.238 20.7112 116.53 20.027 116.447 18.9288C116.374 18.0206 116.722 17.3966 117.601 17.1556C118.374 16.9378 119.17 16.8127 119.974 16.7834C122.003 16.7262 124.036 16.7525 126.068 16.7463C126.419 16.7478 126.773 16.7494 127.162 16.7494Z" fill="#8D92A3"/>
<path d="M62.0219 11.104C63.9585 11.104 65.3325 11.4222 66.7653 12.2022C68.1471 12.9544 69.0791 14.204 69.6107 16.0251C70.079 17.6283 70.0543 19.1451 70.0172 19.5282C69.9987 19.6378 69.9817 19.7444 69.9647 19.8603C69.8797 20.4225 69.7236 21.4682 69.1811 22.5061C68.5644 23.6846 67.6123 24.5295 66.2692 25.0917C65.5999 25.3713 64.3372 25.7606 62.1301 26.0216C60.3418 26.2193 58.5443 26.312 56.7437 26.3012C56.0157 26.3012 55.3186 26.2888 54.6726 26.2687C54.6664 25.6339 54.6664 24.9466 54.6772 24.2268C54.739 20.0363 55.1347 16.5857 55.7916 14.5114C55.9941 13.875 56.8318 12.6687 57.4948 12.2038C58.0296 11.881 60.1115 11.104 62.0219 11.104ZM62.0219 6.55988C59.0327 6.55988 55.9832 7.73067 54.9477 8.435C53.3604 9.51775 51.9384 11.6199 51.4593 13.1336C49.5026 19.2996 50.2723 30.5534 50.2723 30.5534C50.2723 30.5534 53.1347 30.8422 56.7468 30.8422C60.4886 30.8422 65.0311 30.5349 68.0265 29.2807C73.9152 26.8186 74.3248 21.2535 74.5072 20.2495C74.6896 19.2455 75.0188 11.5149 68.9384 8.20794C66.7452 7.01553 64.5968 6.55988 62.0219 6.55988Z" fill="#8D92A3"/>
<path d="M18.8503 21.3893C18.8503 21.3893 19.4176 31.1155 17.9307 34.8997C16.4438 38.684 13.5087 39.1782 13.5087 39.1782C13.5087 39.1782 9.08063 41.3036 4.37584 38.7179C-0.328943 36.1323 -0.0847392 30.1579 0.0574554 29.3794C0.19965 28.6009 0.516496 24.2854 5.08372 22.3747C9.65095 20.4641 18.8503 21.3893 18.8503 21.3893Z" fill="#58ACE0"/>
<path d="M21.5823 21.3894C21.5823 21.3894 21.0166 31.1156 22.5019 34.8998C23.9873 38.6841 26.927 39.1799 26.927 39.1799C26.927 39.1799 31.3551 41.3021 36.0599 38.7196C40.7647 36.1371 40.5189 30.1595 40.3783 29.3811C40.2361 28.6026 39.9192 24.287 35.352 22.3764C30.7848 20.4657 21.5823 21.3894 21.5823 21.3894Z" fill="#C956D6"/>
<path d="M30.6981 3.6066C32.1849 3.6066 33.239 3.85064 34.338 4.44839C35.389 5.01989 36.0968 5.97135 36.5033 7.35838C36.865 8.58478 36.8449 9.74939 36.8186 10.0475C36.8047 10.1325 36.7924 10.2159 36.7785 10.3039C36.7135 10.7364 36.593 11.538 36.1788 12.3288C35.7089 13.2247 34.9856 13.8688 33.9624 14.2966C33.1309 14.6442 31.0706 15.2265 26.6084 15.2265C26.0737 15.2265 25.5605 15.2172 25.0829 15.2033C25.0783 14.7338 25.0799 14.2287 25.086 13.702C25.134 10.4553 25.4384 7.79241 25.9469 6.19068C26.0984 5.7134 26.7445 4.78974 27.2344 4.4453C27.6471 4.19972 29.2437 3.6066 30.6981 3.6066ZM30.6996 0C28.3812 0 26.0165 0.908214 25.2143 1.45654C23.984 2.29834 22.8805 3.92632 22.508 5.10021C20.9918 9.88223 21.5884 18.6107 21.5884 18.6107C21.5884 18.6107 23.8094 18.8331 26.61 18.8331C29.5111 18.8331 33.035 18.5937 35.358 17.6221C39.9237 15.7115 40.2421 11.3959 40.3843 10.6174C40.5265 9.83898 40.78 3.84446 36.0659 1.27891C34.3611 0.353709 32.695 0 30.6996 0Z" fill="#8D92A3"/>
<path d="M18.8485 18.6102C18.8485 18.6102 19.4157 8.88552 17.9289 5.09975C16.442 1.31398 13.5069 0.819715 13.5069 0.819715C13.5069 0.819715 9.08035 -1.30254 4.37402 1.28C-0.332307 3.86254 -0.0865576 9.84007 0.055637 10.6185C0.197831 11.397 0.514678 15.7126 5.0819 17.6232C9.64913 19.5339 18.8485 18.6102 18.8485 18.6102Z" fill="#71D8A4"/>
</g>
<defs>
<clipPath id="clip0">
<rect width="179.048" height="40" fill="white"/>
</clipPath>
</defs>
</svg>
