<svg width="30" height="30" viewBox="0 0 30 30" fill="none" xmlns="http://www.w3.org/2000/svg">
<rect width="30" height="30" rx="5" fill="#0052CC"/>
<path d="M25.0174 26.9915L18.7222 25.8855C17.4618 26.342 16.1372 26.5735 14.7997 26.5671C8.29218 26.5671 3.00003 21.2749 3.00003 14.7675C2.98717 8.27928 8.24074 3.00643 14.7289 3M25.0174 26.9915L25.0759 26.6211C25.0768 26.6212 25.0777 26.6213 25.0785 26.6215M25.0174 26.9915L25.0823 26.6221L25.0785 26.6215M25.0174 26.9915C25.1396 27.0108 25.2682 26.9979 25.384 26.9465C25.7055 26.8114 25.8598 26.432 25.7183 26.1041L24.0014 22.1173C25.6605 20.0403 26.5671 17.4618 26.5671 14.806C26.5671 8.29858 21.275 3.00643 14.7675 3.00643C14.7482 3.00643 14.7354 3.00643 14.7289 3M25.0785 26.6215L18.787 25.5161L18.6885 25.4988L18.5944 25.5329C17.3752 25.9746 16.0943 26.1983 14.8015 26.1921L14.7997 26.1921C8.49928 26.1921 3.37503 21.0678 3.37503 14.7675V14.7667C3.36261 8.5024 8.4214 3.40848 14.679 3.37516M25.0785 26.6215C25.1359 26.6301 25.1894 26.6226 25.2317 26.6038L25.2316 26.6037L25.2387 26.6007C25.3664 26.5471 25.4336 26.3907 25.374 26.2526L25.3739 26.2524L23.657 22.2656L23.568 22.059L23.7084 21.8833C25.3146 19.8725 26.1921 17.3764 26.1921 14.806C26.1921 8.50568 21.0679 3.38143 14.7675 3.38143L14.7671 3.38143C14.7632 3.38148 14.73 3.38188 14.6969 3.37773C14.6924 3.37717 14.6863 3.37637 14.679 3.37516M14.679 3.37516C14.6347 3.3678 14.5436 3.34502 14.4638 3.26517L14.7289 3M14.679 3.37516C14.6958 3.37507 14.7125 3.37502 14.7293 3.375L14.7289 3" stroke="white" stroke-width="0.75"/>
<path d="M11.5643 10.9697H8.35294C8.15799 10.9697 8 10.8116 8 10.6168C8 10.422 8.15799 10.2639 8.35294 10.2639H11.5643C11.7593 10.2639 11.9173 10.422 11.9173 10.6168C11.9173 10.8116 11.7593 10.9697 11.5643 10.9697Z" fill="white"/>
<path d="M12.8281 12.2333C11.9366 12.2333 11.2114 11.5081 11.2114 10.6167C11.2114 9.7252 11.9366 9 12.8281 9C13.7195 9 14.4447 9.7252 14.4447 10.6167C14.4447 11.5081 13.7195 12.2333 12.8281 12.2333ZM12.8281 9.7059C12.3259 9.7059 11.9173 10.1145 11.9173 10.6167C11.9173 11.1189 12.3259 11.5274 12.8281 11.5274C13.3303 11.5274 13.7388 11.1189 13.7388 10.6167C13.7388 10.1145 13.3303 9.7059 12.8281 9.7059Z" fill="white"/>
<path d="M21.6471 10.9697H15.3721C15.1772 10.9697 15.0192 10.8116 15.0192 10.6168C15.0192 10.422 15.1772 10.2639 15.3721 10.2639H21.6471C21.8421 10.2639 22.0001 10.422 22.0001 10.6168C22.0001 10.8116 21.8421 10.9697 21.6471 10.9697Z" fill="white"/>
<path d="M17.5668 16.4982C16.6754 16.4982 15.9502 15.773 15.9502 14.8816C15.9502 13.9903 16.6754 13.2651 17.5668 13.2651C18.4583 13.2651 19.1835 13.9903 19.1835 14.8816C19.1835 15.773 18.4583 16.4982 17.5668 16.4982ZM17.5668 13.971C17.0646 13.971 16.6561 14.3794 16.6561 14.8816C16.6561 15.3838 17.0646 15.7923 17.5668 15.7923C18.069 15.7923 18.4776 15.3838 18.4776 14.8816C18.4776 14.3794 18.069 13.971 17.5668 13.971Z" fill="white"/>
<path d="M15.0229 15.2346H8.35294C8.15799 15.2346 8 15.0765 8 14.8817C8 14.6868 8.15799 14.5287 8.35294 14.5287H15.0229C15.2178 14.5287 15.3758 14.6868 15.3758 14.8817C15.3758 15.0765 15.2178 15.2346 15.0229 15.2346Z" fill="white"/>
<path d="M21.6471 15.2346H18.8306C18.6357 15.2346 18.4777 15.0765 18.4777 14.8817C18.4777 14.6868 18.6357 14.5287 18.8306 14.5287H21.6471C21.8421 14.5287 22.0001 14.6868 22.0001 14.8817C22.0001 15.0765 21.8421 15.2346 21.6471 15.2346Z" fill="white"/>
<path d="M12.4332 20.7633C11.5417 20.7633 10.8165 20.0381 10.8165 19.1465C10.8165 18.2552 11.5417 17.53 12.4332 17.53C13.3246 17.53 14.0498 18.2552 14.0498 19.1465C14.0498 20.0381 13.3246 20.7633 12.4332 20.7633ZM12.4332 18.2359C11.931 18.2359 11.5224 18.6443 11.5224 19.1465C11.5224 19.6487 11.931 20.0574 12.4332 20.0574C12.9354 20.0574 13.3439 19.6487 13.3439 19.1465C13.3439 18.6443 12.9354 18.2359 12.4332 18.2359Z" fill="white"/>
<path d="M21.6471 19.4995H14.9771C14.7822 19.4995 14.6242 19.3414 14.6242 19.1465C14.6242 18.9517 14.7822 18.7936 14.9771 18.7936H21.6471C21.842 18.7936 22 18.9517 22 19.1465C22 19.3414 21.842 19.4995 21.6471 19.4995Z" fill="white"/>
<path d="M11.1695 19.4995H8.35294C8.15799 19.4995 8 19.3414 8 19.1465C8 18.9517 8.15799 18.7936 8.35294 18.7936H11.1695C11.3644 18.7936 11.5224 18.9517 11.5224 19.1465C11.5224 19.3414 11.3644 19.4995 11.1695 19.4995Z" fill="white"/>
</svg>
