<svg width="24" height="24" viewBox="0 0 24 24" fill="none" xmlns="http://www.w3.org/2000/svg">
<path fill-rule="evenodd" clip-rule="evenodd" d="M17.1834 17.7464H20.6588C20.8521 17.7464 20.9999 17.5986 20.9999 17.4053C20.9999 14.9945 19.4534 13.664 16.6447 13.664C16.0461 13.664 15.5049 13.7245 15.0237 13.8429C15.0993 13.9015 15.1733 13.9618 15.2456 14.0239C15.4269 14.1798 15.5959 14.3451 15.7525 14.5193C16.0248 14.4832 16.3217 14.464 16.6447 14.464C17.9352 14.464 18.8111 14.7707 19.3542 15.2373C19.7958 15.6168 20.0939 16.1681 20.1766 16.9464H17.0262C17.0927 17.2045 17.1451 17.4714 17.1834 17.7464Z" fill="#7E8F9F"/>
<path d="M18.5078 10.7075C18.5078 11.8718 17.6441 12.7638 16.6448 12.7638C15.6456 12.7638 14.7819 11.8718 14.7819 10.7075C14.7819 9.60279 15.5873 8.79914 16.6448 8.79914C17.7024 8.79914 18.5078 9.60278 18.5078 10.7075Z" stroke="#7E8F9F" stroke-width="0.8"/>
<path d="M3.4 18.9187C3.4 17.1456 3.96516 15.8218 4.99834 14.934C6.04113 14.0379 7.61742 13.5368 9.73089 13.5368C11.8443 13.5368 13.4206 14.0379 14.4634 14.934C15.4966 15.8218 16.0617 17.1456 16.0617 18.9187C16.0617 18.9635 16.0457 18.9931 16.0273 19.0115C16.0089 19.0299 15.9793 19.0459 15.9345 19.0459H3.52721C3.48245 19.0459 3.45283 19.0299 3.43441 19.0115C3.416 18.9931 3.4 18.9635 3.4 18.9187Z" stroke="#7E8F9F" stroke-width="0.8"/>
<path d="M12.8282 8.56754C12.8282 10.4699 11.4125 11.9635 9.73097 11.9635C8.04941 11.9635 6.6337 10.47 6.6337 8.56754C6.6337 6.74328 7.97256 5.4 9.73097 5.4C11.4894 5.4 12.8282 6.74327 12.8282 8.56754Z" stroke="#7E8F9F" stroke-width="0.8"/>
</svg>
