<svg width="24" height="24" viewBox="0 0 24 24" fill="none" xmlns="http://www.w3.org/2000/svg">
<path d="M14.7965 9.52148C14.5637 9.52148 14.375 9.71019 14.375 9.94303V17.9102C14.375 18.1429 14.5637 18.3318 14.7965 18.3318C15.0294 18.3318 15.2181 18.1429 15.2181 17.9102V9.94303C15.2181 9.71019 15.0294 9.52148 14.7965 9.52148Z" fill="#7E8F9F"/>
<path d="M9.82267 9.52148C9.58983 9.52148 9.40112 9.71019 9.40112 9.94303V17.9102C9.40112 18.1429 9.58983 18.3318 9.82267 18.3318C10.0555 18.3318 10.2442 18.1429 10.2442 17.9102V9.94303C10.2442 9.71019 10.0555 9.52148 9.82267 9.52148Z" fill="#7E8F9F"/>
<path d="M6.19725 8.35877V18.7447C6.19725 19.3586 6.42235 19.9351 6.81557 20.3487C7.20699 20.7635 7.7517 20.999 8.32177 21H16.2975C16.8678 20.999 17.4125 20.7635 17.8037 20.3487C18.1969 19.9351 18.422 19.3586 18.422 18.7447V8.35877C19.2037 8.15129 19.7102 7.39614 19.6057 6.59405C19.5009 5.79213 18.8177 5.19225 18.0089 5.19209H15.8506V4.66516C15.8531 4.22204 15.6779 3.79654 15.3642 3.48351C15.0505 3.17065 14.6244 2.99643 14.1812 3.00006H10.4381C9.99494 2.99643 9.56879 3.17065 9.2551 3.48351C8.94141 3.79654 8.76621 4.22204 8.76868 4.66516V5.19209H6.6104C5.80156 5.19225 5.11836 5.79213 5.01364 6.59405C4.90907 7.39614 5.41559 8.15129 6.19725 8.35877ZM16.2975 20.1569H8.32177C7.60103 20.1569 7.04034 19.5378 7.04034 18.7447V8.39582H17.579V18.7447C17.579 19.5378 17.0183 20.1569 16.2975 20.1569ZM9.61176 4.66516C9.60896 4.44566 9.69525 4.23439 9.85102 4.07944C10.0066 3.92449 10.2184 3.83936 10.4381 3.84314H14.1812C14.4009 3.83936 14.6127 3.92449 14.7683 4.07944C14.924 4.23423 15.0103 4.44566 15.0075 4.66516V5.19209H9.61176V4.66516ZM6.6104 6.03517H18.0089C18.428 6.03517 18.7677 6.37488 18.7677 6.79395C18.7677 7.21303 18.428 7.55273 18.0089 7.55273H6.6104C6.19133 7.55273 5.85162 7.21303 5.85162 6.79395C5.85162 6.37488 6.19133 6.03517 6.6104 6.03517Z" fill="#7E8F9F"/>
<path d="M12.3096 9.52148C12.0768 9.52148 11.8881 9.71019 11.8881 9.94303V17.9102C11.8881 18.1429 12.0768 18.3318 12.3096 18.3318C12.5424 18.3318 12.7311 18.1429 12.7311 17.9102V9.94303C12.7311 9.71019 12.5424 9.52148 12.3096 9.52148Z" fill="#7E8F9F"/>
</svg>
