<svg width="16" height="16" viewBox="0 0 16 16" fill="none" xmlns="http://www.w3.org/2000/svg">
<path d="M8.46875 6.82812H7.53125C7.4018 6.82812 7.29688 6.93308 7.29688 7.0625V11.2812C7.29688 11.4107 7.4018 11.5156 7.53125 11.5156H8.46875C8.59817 11.5156 8.70312 11.4107 8.70312 11.2812V7.0625C8.70312 6.93308 8.59817 6.82812 8.46875 6.82812Z" fill="#7E8F9F"/>
<path d="M8 2C4.68177 2 2 4.68097 2 8C2 11.3183 4.68099 14 8 14C11.3183 14 14 11.319 14 8C14 4.68172 11.319 2 8 2ZM8 13.5312C4.95005 13.5312 2.46875 11.0499 2.46875 8C2.46875 4.95005 4.95005 2.46875 8 2.46875C11.0499 2.46875 13.5312 4.95005 13.5312 8C13.5312 11.0499 11.0499 13.5312 8 13.5312Z" fill="#7E8F9F"/>
<path d="M8 5.89062C8.38833 5.89062 8.70312 5.57583 8.70312 5.1875C8.70312 4.79917 8.38833 4.48438 8 4.48438C7.61167 4.48438 7.29688 4.79917 7.29688 5.1875C7.29688 5.57583 7.61167 5.89062 8 5.89062Z" fill="#7E8F9F"/>
</svg>
