<svg width="30" height="30" viewBox="0 0 30 30" fill="none" xmlns="http://www.w3.org/2000/svg">
<rect width="30" height="30" rx="5" fill="#0052CC"/>
<path d="M25.0174 26.9915L18.7222 25.8855C17.4618 26.342 16.1372 26.5735 14.7997 26.5671C8.29218 26.5671 3.00003 21.2749 3.00003 14.7675C2.98717 8.27928 8.24074 3.00643 14.7289 3M25.0174 26.9915L25.0759 26.6211C25.0768 26.6212 25.0777 26.6213 25.0785 26.6215M25.0174 26.9915L25.0823 26.6221L25.0785 26.6215M25.0174 26.9915C25.1396 27.0108 25.2682 26.9979 25.384 26.9465C25.7055 26.8114 25.8598 26.432 25.7183 26.1041L24.0014 22.1173C25.6605 20.0403 26.5671 17.4618 26.5671 14.806C26.5671 8.29858 21.275 3.00643 14.7675 3.00643C14.7482 3.00643 14.7354 3.00643 14.7289 3M25.0785 26.6215L18.787 25.5161L18.6885 25.4988L18.5944 25.5329C17.3752 25.9746 16.0943 26.1983 14.8015 26.1921L14.7997 26.1921C8.49928 26.1921 3.37503 21.0678 3.37503 14.7675V14.7667C3.36261 8.5024 8.4214 3.40848 14.679 3.37516M25.0785 26.6215C25.1359 26.6301 25.1894 26.6226 25.2317 26.6038L25.2316 26.6037L25.2387 26.6007C25.3664 26.5471 25.4336 26.3907 25.374 26.2526L25.3739 26.2524L23.657 22.2656L23.568 22.059L23.7084 21.8833C25.3146 19.8725 26.1921 17.3764 26.1921 14.806C26.1921 8.50568 21.0679 3.38143 14.7675 3.38143L14.7671 3.38143C14.7632 3.38148 14.73 3.38188 14.6969 3.37773C14.6924 3.37717 14.6863 3.37637 14.679 3.37516M14.679 3.37516C14.6347 3.3678 14.5436 3.34502 14.4638 3.26517L14.7289 3M14.679 3.37516C14.6958 3.37507 14.7125 3.37502 14.7293 3.375L14.7289 3" stroke="white" stroke-width="0.75"/>
<g clip-path="url(#clip0)">
<path d="M11.9008 12.0193C11.9564 12.2749 12.0416 12.4403 12.141 12.5434C12.3774 14.1894 13.8548 15.592 15.0414 15.5334C16.5509 15.4593 17.6208 13.8325 17.861 12.5434C17.9604 12.4409 18.0561 12.2218 18.1135 11.9643C18.1777 11.6686 18.2469 11.2229 18.0691 10.987C18.0586 10.9747 17.9907 10.9123 17.9789 10.9018C18.1487 10.2894 18.5216 9.19662 17.5931 8.21437C17.0899 7.68219 16.391 7.41486 15.7595 7.20372C13.895 6.58078 12.5787 7.45437 11.9712 8.90707C11.9274 9.01017 11.644 9.66274 11.9873 10.9018C11.9539 10.924 11.9237 10.9524 11.8984 10.987C11.7199 11.2222 11.836 11.7236 11.9008 12.0193Z" fill="white"/>
<path d="M21.5437 21.0713C21.4918 19.9384 21.4276 18.1431 20.4379 16.6743C20.4379 16.6743 20.1558 16.2897 19.4866 16.0341C19.4866 16.0341 18.0332 15.5914 17.364 15.113L17.0584 15.3223L17.0924 17.309L15.2575 22.2073C15.2174 22.3147 15.1149 22.3857 15.0007 22.3857C14.8865 22.3857 14.784 22.3147 14.7438 22.2073L12.9096 17.309C12.9096 17.309 12.9436 15.3284 12.943 15.3223C12.9473 15.3389 12.6367 15.113 12.6367 15.113C11.9687 15.5914 10.5148 16.0341 10.5148 16.0341C9.84556 16.2897 9.56342 16.6743 9.56342 16.6743C8.57438 18.1431 8.50894 19.9384 8.45708 21.0713C8.42127 21.8541 8.58549 22.1462 8.7917 22.2295C11.3513 23.2568 18.6482 23.2568 21.2084 22.2295C21.4159 22.1468 21.5789 21.8541 21.5437 21.0713Z" fill="white"/>
<path d="M15.0662 16.1662L14.9835 16.168C14.7168 16.168 14.4476 16.1162 14.1833 16.0248L14.9106 17.1379L14.2581 17.7676L14.9298 21.8467C14.9353 21.8819 14.9656 21.9072 15.0014 21.9072C15.0366 21.9072 15.0668 21.8819 15.073 21.8467L15.7447 17.7676L15.0915 17.1379L15.8083 16.0414C15.5743 16.11 15.3267 16.1557 15.0662 16.1662Z" fill="white"/>
</g>
<defs>
<clipPath id="clip0">
<rect width="16" height="16" fill="white" transform="translate(7 7)"/>
</clipPath>
</defs>
</svg>
